<?xml version="1.0" encoding="UTF-8"?>
<!DOCTYPE svg PUBLIC "-//W3C//DTD SVG 1.1//EN" "http://www.w3.org/Graphics/SVG/1.1/DTD/svg11.dtd">
<!-- Creator: CorelDRAW -->
<svg xmlns="http://www.w3.org/2000/svg" xml:space="preserve" width="4.2in" height="4.5in" style="shape-rendering:geometricPrecision; text-rendering:geometricPrecision; image-rendering:optimizeQuality; fill-rule:evenodd; clip-rule:evenodd"
viewBox="0 0 4.2 4.5"
 xmlns:xlink="http://www.w3.org/1999/xlink">
 <defs>
  <style type="text/css">
   <![CDATA[
    .fil0 {fill:url(#id0)}
   ]]>
  </style>
  <linearGradient id="id0" gradientUnits="userSpaceOnUse" x1="-0.0833701" y1="3.21722" x2="4.29164" y2="1.1771">
   <stop offset="0" style="stop-color:#3E4095"/>
   <stop offset="0.611765" style="stop-color:#328EB7"/>
   <stop offset="1" style="stop-color:#26DDD9"/>
  </linearGradient>
 </defs>
 <g id="Layer_x0020_1">
  <metadata id="CorelCorpID_0Corel-Layer"/>
  <path class="fil0" d="M0.178547 1.46187c0.0339055,0.330291 0.00423228,1.3887 0.033689,1.84004l1.4577 0.840858c0.0210709,0.0149173 0.0594055,0.0364291 0.106417,0.062563 0.0175906,0.151287 0.146114,0.268689 0.302122,0.268689 0.150488,0 0.275402,-0.109232 0.29985,-0.252752 0.0243071,-0.0136496 0.057122,-0.032 0.102772,-0.0590433l1.5099 -0.846811 0.00205118 -1.95238c0.0876142,-0.0534016 0.146094,-0.149854 0.146094,-0.259957 0,-0.168024 -0.136185,-0.304209 -0.304209,-0.304209 -0.0822205,0 -0.156823,0.0326339 -0.211563,0.0856339 -0.0340906,-0.0180394 -0.0741102,-0.0402953 -0.121614,-0.0678819 -0.375685,-0.218283 -0.739646,-0.413386 -1.09515,-0.635189 -0.418524,-0.261138 -0.248323,-0.196539 -1.08611,0.267795 -0.195831,0.108543 -0.349657,0.200913 -0.548409,0.316697 -0.194543,0.113354 -0.257252,0.144791 -0.317024,0.169205 -0.0259921,-0.00722441 -0.0534016,-0.0111102 -0.0816969,-0.0111102 -0.168024,0 -0.304209,0.136185 -0.304209,0.304209 0,0.0938937 0.0425472,0.177823 0.109394,0.233638zm1.89993 2.40374c0.0630748,0 0.121665,0.019185 0.170236,0.0520394 0.0308937,-0.0595709 0.0594252,-0.129362 0.0870512,-0.18828 0.0942047,-0.228303 0.188933,-0.386705 0.236181,-0.53115 -0.063185,-0.0557402 -0.103043,-0.137291 -0.103043,-0.228173 0,-0.0206929 0.00206693,-0.0409134 0.00600787,-0.0604409 -0.183996,-0.0597362 -0.495937,-0.170709 -0.671874,-0.195157 -0.0361378,0.050185 -0.0871969,0.088937 -0.146677,0.109701 0.0630039,0.234783 0.266382,0.820894 0.355449,1.04881 0.0214567,-0.00480709 0.0437638,-0.00735039 0.0666693,-0.00735039zm0.242331 0.120303c0.0222717,0.0292953 0.0393504,0.062748 0.0498622,0.0989961l1.39099 -0.800618c-0.26713,-0.0711299 -0.525051,-0.138252 -0.719394,-0.172378 -0.0509843,0.0965472 -0.152374,0.162343 -0.269157,0.162343 -0.0354843,0 -0.0695551,-0.00609843 -0.101209,-0.0172598 -0.210677,0.42774 -0.307441,0.620614 -0.351094,0.728917zm-0.535665 0.103098c0.0175315,-0.0637992 0.0553031,-0.119217 0.106,-0.158894 -0.0086063,-0.0426181 -0.0229961,-0.0935669 -0.0450157,-0.154083 -0.044378,-0.121972 -0.0735472,-0.205937 -0.115673,-0.322559 -0.0494449,-0.136839 -0.171638,-0.508295 -0.229339,-0.617311 -0.0691732,-0.0125945 -0.130197,-0.0485709 -0.174539,-0.0994646 -0.0755433,0.00932677 -0.162504,0.0799173 -0.340654,0.157748 -0.186028,0.108543 -0.43415,0.238756 -0.587744,0.369189 0.0547992,0.0622559 1.26798,0.766965 1.287,0.773028l0.0999606 0.0523465zm1.02245 -1.42121c0.15178,0.0171339 0.269724,0.145878 0.269724,0.302248 0,0.00757087 -0.000291339,0.0150669 -0.000834646,0.0224882l0.683504 0.150071 -0.979291 -1.1793c-0.0129055,0.00406299 -0.0261378,0.00727559 -0.0397126,0.00960236 0.0113228,0.168437 0.0291654,0.454697 0.0524173,0.568575 0.00822441,0.0743819 0.0106929,0.109012 0.0141929,0.126311zm-0.273803 0.114406c0.0386772,-0.0492087 0.092189,-0.0861614 0.153811,-0.104169l-0.0904488 -0.71489c-0.0468268,-0.0148465 -0.0887205,-0.0406929 -0.122681,-0.0745276 -0.0616772,-0.00985433 -0.0655945,0.0529094 -0.368445,0.264331 -0.166476,0.116205 -0.25315,0.16648 -0.298236,0.21322 0.0330709,0.0486811 0.0524016,0.107453 0.0524016,0.170744 0,0.0210354 -0.00214173,0.0415669 -0.00618898,0.0613858 0.305551,0.086252 0.260756,0.0836024 0.679787,0.183906zm-0.977807 -0.5495l0.00679134 7.08661e-005c0.0254646,-0.081748 0.0648346,-0.205268 0.137945,-0.388299 0.0942008,-0.235799 0.17824,-0.413602 0.222602,-0.539591 -0.0948189,-0.0477717 -0.161236,-0.143681 -0.167098,-0.255654 -0.21563,-0.00607874 -0.596744,0.0526024 -1.08889,0.100575 0.00666142,0.0250118 0.0102362,0.051311 0.0102362,0.0784291 0,0.0852717 -0.0351024,0.162323 -0.0916063,0.217555l0.782264 0.851728c0.0517126,-0.0406181 0.116894,-0.064815 0.187752,-0.064815zm0.108126 0.0197835c0.0186417,0.00709843 0.0364291,0.0159921 0.0531102,0.0264291 0.0548701,-0.0262087 0.134114,-0.0923898 0.470323,-0.335102 0.153866,-0.143409 0.143248,-0.123862 0.208173,-0.190366 -0.00698819,-0.0256102 -0.0107441,-0.0525276 -0.0107441,-0.0803346 0,-0.0877047 0.0371181,-0.166717 0.0964882,-0.22222 -0.0222165,-0.0455039 -0.0555591,-0.0847835 -0.0902283,-0.129362 -0.0342874,-0.0440866 -0.0663386,-0.0750157 -0.0964173,-0.0950551 -0.0557756,0.0676654 -0.140268,0.110791 -0.234815,0.110791 -0.00724409,0 -0.0144331,-0.000291339 -0.0215472,-0.000779528 -0.0496417,0.084874 -0.0898819,0.194087 -0.124787,0.285024 -0.0778307,0.202799 -0.189547,0.435512 -0.249555,0.630976zm-0.405055 0.350783c-0.00475591,-0.0213622 -0.00727953,-0.0435591 -0.00727953,-0.0663583 0,-0.0486457 0.011437,-0.0946024 0.0317283,-0.13537 -0.0321614,-0.0433071 -0.0831299,-0.0821693 -0.131374,-0.144315l-0.269815 -0.305626c-0.209752,-0.223945 -0.296346,-0.305878 -0.430882,-0.429287 -0.0249016,0.00661024 -0.0510787,0.0101299 -0.0780669,0.0101299 -0.0201299,0 -0.0397874,-0.00198031 -0.0588071,-0.00570079l-0.00851575 1.62694 0.953012 -0.550409zm-0.676339 -1.59575c0.0132323,0.0125591 0.0253228,0.0262795 0.036122,0.0410197l1.14882 -0.0998661c0.0332165,-0.115331 0.132807,-0.202492 0.254764,-0.217504l0.0131772 -0.523161c-0.104004,0.0074252 -1.12061,0.602827 -1.45289,0.799512zm3.30199 0.395705c-0.016189,0.00266929 -0.0328189,0.00406693 -0.0497717,0.00406693 -0.107126,0 -0.201327,-0.0553622 -0.255508,-0.139055 -0.179114,0.0894843 -0.461343,0.220154 -0.593551,0.337461 0.00490157,0.0216732 0.00751575,0.0442362 0.00751575,0.0674134 0,0.0765591 -0.0282795,0.146496 -0.0749646,0.199969 0.0336535,0.0835669 0.129744,0.183831 0.331197,0.445858 0.170437,0.223764 0.474264,0.605185 0.623736,0.759665 0.0190787,-0.453406 0.00695276,-0.946768 0.00588189,-1.40409 -0.000181102,-0.0753465 0.00644488,-0.177461 0.00546457,-0.271283zm-0.353634 -0.285965c-0.000216535,-0.00470472 -0.000346457,-0.00942126 -0.000346457,-0.0141772 0,-0.0458858 0.0101654,-0.089374 0.0283543,-0.128382 -0.347933,-0.215524 -1.09546,-0.611228 -1.40444,-0.782917l0.0105079 0.426291c-0.0022126,0.0456457 -0.00268504,0.0896457 -0.000433071,0.129268 0.116417,0.0426732 0.199496,0.154484 0.199496,0.285713 0,0.0230512 -0.00257874,0.0455236 -0.00744488,0.0671063 0.0530748,0.0832402 0.117929,0.158874 0.233075,0.285346 0.0311299,-0.0107441 0.064563,-0.0166063 0.0993425,-0.0166063 0.0778661,0 0.14887,0.0292598 0.202669,0.077378 0.210969,-0.0687205 0.473449,-0.226634 0.63922,-0.32902z"/>
 </g>
</svg>
