<?xml version="1.0" encoding="UTF-8"?>
<!DOCTYPE svg PUBLIC "-//W3C//DTD SVG 1.1//EN" "http://www.w3.org/Graphics/SVG/1.1/DTD/svg11.dtd">
<!-- Creator: CorelDRAW -->
<svg xmlns="http://www.w3.org/2000/svg" xml:space="preserve" width="2in" height="0.95in" style="shape-rendering:geometricPrecision; text-rendering:geometricPrecision; image-rendering:optimizeQuality; fill-rule:evenodd; clip-rule:evenodd"
viewBox="0 0 2 0.95"
 xmlns:xlink="http://www.w3.org/1999/xlink">
 <defs>
  <style type="text/css">
   <![CDATA[
    .fil0 {fill:#0093DD}
    .fil2 {fill:white}
    .fil3 {fill:#0093DD;fill-rule:nonzero}
    .fil1 {fill:white;fill-rule:nonzero}
   ]]>
  </style>
 </defs>
 <g id="Layer_x0020_1">
  <metadata id="CorelCorpID_0Corel-Layer"/>
  <circle class="fil0" cx="0.469354" cy="0.478278" r="0.462506"/>
  <path class="fil1" d="M0.457701 0.220882l0.107917 0c0.0434213,0 0.076685,0.00520472 0.100043,0.0154882 0.0232362,0.0102835 0.0416417,0.0261535 0.0552283,0.0474843 0.0134567,0.0213307 0.020315,0.0449449 0.020315,0.0709724 0,0.024374 -0.0059685,0.0464685 -0.0179016,0.0663976 -0.011937,0.0199331 -0.0294567,0.036185 -0.052437,0.0485 0.0284409,0.00977559 0.0504055,0.0210748 0.0657677,0.0340276 0.0154882,0.0130748 0.0274213,0.0288189 0.0359291,0.0473543 0.00850787,0.0184094 0.0128228,0.0384685 0.0128228,0.0600512 0,0.0438031 -0.0159961,0.0810039 -0.0481181,0.111346 -0.032122,0.0303425 -0.0751614,0.0455787 -0.129244,0.0455787l-0.150323 0 0 -0.547201zm0.0535787 0.0535787l0 0.175205 0.0312323 0c0.0379606,0 0.0658898,-0.00355512 0.0836654,-0.0105394 0.0179016,-0.0071063 0.0319961,-0.0182795 0.0424055,-0.0335157 0.0104094,-0.0152362 0.0156142,-0.032122 0.0156142,-0.0507835 0,-0.0250118 -0.00875984,-0.0446929 -0.0261535,-0.0589094 -0.0175197,-0.0143465 -0.0453228,-0.0214567 -0.0835394,-0.0214567l-0.0632244 0zm0 0.230307l0 0.209736 0.0676693 0c0.0399921,0 0.0691929,-0.00393307 0.0878543,-0.0116772 0.0185394,-0.00787402 0.0335197,-0.020063 0.0448189,-0.0366929 0.0112992,-0.0166339 0.0168858,-0.0345354 0.0168858,-0.0539606 0,-0.024248 -0.008,-0.0454488 -0.0238701,-0.0636063 -0.0158701,-0.0180276 -0.0375787,-0.0304685 -0.0653819,-0.0370709 -0.0186654,-0.00457087 -0.0510394,-0.00672835 -0.097126,-0.00672835l-0.0308504 0z"/>
  <rect class="fil2" x="-0.105411" y="0.224832" width="0.497891" height="0.0577265"/>
  <rect class="fil2" x="-0.10318" y="0.595862" width="0.497891" height="0.0577265"/>
  <rect class="fil2" x="-0.104943" y="0.349687" width="0.497891" height="0.0577265"/>
  <rect class="fil2" x="-0.103738" y="0.71252" width="0.497891" height="0.0577265"/>
  <rect class="fil2" x="0.0984399" y="0.827352" width="0.707149" height="0.0577265"/>
  <rect class="fil2" x="0.116479" y="0.103369" width="0.707149" height="0.0577265"/>
  <polygon class="fil0" points="0.740224,0.10337 1.99198,0.105161 1.99198,0.162886 0.808587,0.162886 "/>
  <polygon class="fil0" points="0.775441,0.823744 1.99176,0.823744 1.99176,0.881472 0.689579,0.885079 "/>
  <rect class="fil2" x="-0.104961" y="0.479662" width="0.497891" height="0.0577265"/>
  <polygon class="fil3" points="0.933823,0.755185 1.01152,0.207984 1.02054,0.207984 1.24297,0.657043 1.46312,0.207984 1.47201,0.207984 1.5506,0.755185 1.49664,0.755185 1.44306,0.363894 1.24957,0.755185 1.23586,0.755185 1.03983,0.360972 0.986642,0.755185 "/>
  <path id="1" class="fil3" d="M1.60227 0.653236l0.0464646 -0.0278031c0.0327559,0.0601772 0.0705906,0.0902677 0.113504,0.0902677 0.0182835,0 0.0355512,-0.00418898 0.0516732,-0.0128228 0.016126,-0.00850787 0.0284409,-0.0199331 0.0368189,-0.0344055 0.00850787,-0.0143465 0.0126969,-0.0295827 0.0126969,-0.0457087 0,-0.0184094 -0.00622047,-0.036311 -0.0186654,-0.0539567 -0.0171378,-0.024248 -0.0483701,-0.0535787 -0.0936969,-0.0877283 -0.0455787,-0.0345354 -0.0740157,-0.0594173 -0.085189,-0.0747835 -0.0192992,-0.0257717 -0.0289488,-0.0537008 -0.0289488,-0.0836654 0,-0.0238701 0.00558661,-0.0455787 0.0170157,-0.0651299 0.0114252,-0.0195512 0.0275472,-0.0350433 0.0482441,-0.0463425 0.0206929,-0.0112992 0.0431654,-0.0168858 0.0674134,-0.0168858 0.0259016,0 0.0500236,0.00635039 0.0723701,0.0191732 0.0224724,0.0126969 0.0462126,0.036311 0.0712244,0.0704606l-0.044563 0.0339016c-0.0205669,-0.0272992 -0.0382165,-0.0453268 -0.052689,-0.0539606 -0.0144724,-0.00863386 -0.0303425,-0.0130748 -0.0473583,-0.0130748 -0.0220906,0 -0.0401181,0.00672835 -0.0542087,0.020185 -0.0139685,0.0133307 -0.0209488,0.0298346 -0.0209488,0.0493898 0,0.0119331 0.00240945,0.0234843 0.0073622,0.0346575 0.00507874,0.0111732 0.0140945,0.0232362 0.0271693,0.036437 0.00723622,0.00685827 0.0308504,0.0251417 0.0707165,0.0545945 0.0473583,0.0350433 0.0798583,0.0661457 0.0975079,0.0934449 0.0175197,0.0272953 0.0264055,0.0545906 0.0264055,0.0821417 0,0.0397402 -0.0151063,0.0741457 -0.0451969,0.103472 -0.0302165,0.0292008 -0.0667795,0.0438031 -0.109949,0.0438031 -0.0332638,0 -0.0633543,-0.00875984 -0.0903937,-0.0265354 -0.0270433,-0.0177756 -0.0519291,-0.0474843 -0.0747795,-0.089126z"/>
 </g>
</svg>
